HIERARCHY
ROOT Hips
{
	OFFSET 0.00000 0.00000 0.00000
	CHANNELS 6 Xposition Yposition Zposition Zrotation Yrotation Xrotation 
	JOINT LHipJoint
	{
		OFFSET 0 0 0
		CHANNELS 3 Zrotation Yrotation Xrotation
		JOINT LeftUpLeg
		{
			OFFSET 1.36337 -1.57426 1.11036
			CHANNELS 3 Zrotation Yrotation Xrotation
			JOINT LeftLeg
			{
				OFFSET 2.38468 -6.55187 0.00000
				CHANNELS 3 Zrotation Yrotation Xrotation
				JOINT LeftFoot
				{
					OFFSET 2.37166 -6.51609 0.00000
					CHANNELS 3 Zrotation Yrotation Xrotation
					JOINT LeftToeBase
					{
						OFFSET 0.29078 -0.79891 2.01393
						CHANNELS 3 Zrotation Yrotation Xrotation
						End Site
						{
							OFFSET 0.00000 -0.00000 1.07924
						}
					}
				}
			}
		}
	}
	JOINT RHipJoint
	{
		OFFSET 0 0 0
		CHANNELS 3 Zrotation Yrotation Xrotation
		JOINT RightUpLeg
		{
			OFFSET -1.36349 -1.57426 1.11036
			CHANNELS 3 Zrotation Yrotation Xrotation
			JOINT RightLeg
			{
				OFFSET -2.29562 -6.30717 0.00000
				CHANNELS 3 Zrotation Yrotation Xrotation
				JOINT RightFoot
				{
					OFFSET -2.40985 -6.62100 0.00000
					CHANNELS 3 Zrotation Yrotation Xrotation
					JOINT RightToeBase
					{
						OFFSET -0.23197 -0.63733 1.92232
						CHANNELS 3 Zrotation Yrotation Xrotation
						End Site
						{
							OFFSET -0.00000 -0.00000 1.01562
						}
					}
				}
			}
		}
	}
	JOINT LowerBack
	{
		OFFSET 0 0 0
		CHANNELS 3 Zrotation Yrotation Xrotation
		JOINT Spine
		{
			OFFSET -0.08565 2.03602 -0.24562
			CHANNELS 3 Zrotation Yrotation Xrotation
			JOINT Spine1
			{
				OFFSET -0.00036 2.05693 0.00216
				CHANNELS 3 Zrotation Yrotation Xrotation
				JOINT Neck
				{
					OFFSET 0 0 0
					CHANNELS 3 Zrotation Yrotation Xrotation
					JOINT Neck1
					{
						OFFSET -0.03664 1.69515 0.31789
						CHANNELS 3 Zrotation Yrotation Xrotation
						JOINT Head
						{
							OFFSET 0.00932 1.70181 -0.46013
							CHANNELS 3 Zrotation Yrotation Xrotation
							End Site
							{
								OFFSET 0.01243 1.77620 -0.19377
							}
						}
					}
				}
				JOINT LeftShoulder
				{
					OFFSET 0 0 0
					CHANNELS 3 Zrotation Yrotation Xrotation
					JOINT LeftArm
					{
						OFFSET 3.74344 0.81315 -0.36647
						CHANNELS 3 Zrotation Yrotation Xrotation
						JOINT LeftForeArm
						{
							OFFSET 4.97185 -0.00000 -0.00000
							CHANNELS 3 Zrotation Yrotation Xrotation
							JOINT LeftHand
							{
								OFFSET 3.35811 -0.00000 0.00000
								CHANNELS 3 Zrotation Yrotation Xrotation
								JOINT LeftFingerBase
								{
									OFFSET 0 0 0
									CHANNELS 3 Zrotation Yrotation Xrotation
									JOINT LeftHandIndex1
									{
										OFFSET 0.62278 -0.00000 0.00000
										CHANNELS 3 Zrotation Yrotation Xrotation
										End Site
										{
											OFFSET 0.50210 -0.00000 0.00000
										}
									}
								}
								JOINT LThumb
								{
									OFFSET 0 0 0
									CHANNELS 3 Zrotation Yrotation Xrotation
									End Site
									{
										OFFSET 0.50976 -0.00000 0.50976
									}
								}
							}
						}
					}
				}
				JOINT RightShoulder
				{
					OFFSET 0 0 0
					CHANNELS 3 Zrotation Yrotation Xrotation
					JOINT RightArm
					{
						OFFSET -3.75385 0.50666 -0.06525
						CHANNELS 3 Zrotation Yrotation Xrotation
						JOINT RightForeArm
						{
							OFFSET -4.96493 -0.00000 -0.00000
							CHANNELS 3 Zrotation Yrotation Xrotation
							JOINT RightHand
							{
								OFFSET -3.34929 -0.00000 0.00000
								CHANNELS 3 Zrotation Yrotation Xrotation
								JOINT RightFingerBase
								{
									OFFSET 0 0 0
									CHANNELS 3 Zrotation Yrotation Xrotation
									JOINT RightHandIndex1
									{
										OFFSET -0.63804 -0.00000 0.00000
										CHANNELS 3 Zrotation Yrotation Xrotation
										End Site
										{
											OFFSET -0.51441 -0.00000 0.00000
										}
									}
								}
								JOINT RThumb
								{
									OFFSET 0 0 0
									CHANNELS 3 Zrotation Yrotation Xrotation
									End Site
									{
										OFFSET -0.52226 -0.00000 0.52226
									}
								}
							}
						}
					}
				}
			}
		}
	}
}
MOTION
Frames: 14
Frame Time: .0083333
-14.8686 14.7602 -1.1881 -298.7720 84.9570 -280.2290 0.0000 0.0000 0.0000 -13.4002 0.8298 -41.2562 11.1996 18.0314 63.4281 3.5605 -1.3240 -35.4696 0.9967 -6.3536 -17.8138 0.0000 0.0000 0.0000 0.8638 1.1252 -63.7613 -10.2278 -17.5360 60.2472 -0.5829 -2.4610 -15.5245 -0.0456 1.3776 -3.7883 -6.7965 -1.8599 23.0485 0.5257 -3.5485 5.3904 5.4170 -1.4661 -6.4136 -1.9429 3.4378 -28.8709 -5.9200 6.9585 16.6464 -0.6525 2.3269 10.1893 0.0000 -0.0000 0.0000 -74.4658 -19.0438 43.6908 43.4182 -49.9696 -21.0205 -0.0000 0.0000 -14.1422 25.9978 -14.5319 -6.9765 -7.1250 0.0000 -0.0000 -1.0256 13.8944 0.7494 0.0000 -0.0000 0.0000 79.9922 -1.7436 27.7312 -27.6819 38.8218 -9.9237 0.0000 -0.0000 -12.5611 -9.2089 -29.7856 4.6044 7.1250 -0.0000 -0.0000 24.5117 -58.3625 -8.3333
-14.7225 14.7479 -1.0605 -299.1430 84.7215 -280.8200 0.0000 0.0000 0.0000 -12.9796 1.0548 -40.6550 11.3888 18.1201 64.0378 3.4009 -1.0411 -34.7182 1.1007 -6.6663 -18.7305 0.0000 0.0000 0.0000 0.9974 1.4908 -63.2724 -10.5086 -17.6861 61.1750 -0.6813 -2.3403 -16.6120 -0.0541 1.5013 -4.1292 -6.4208 -1.8886 22.9440 0.3755 -3.4948 5.4887 5.0145 -1.4503 -6.2959 -1.8812 3.4465 -29.0148 -6.1506 7.0084 16.6018 -0.7344 2.3245 10.2127 -0.0000 0.0000 0.0000 -74.9197 -18.6222 42.7460 40.0013 -48.0706 -18.4402 -0.0000 0.0000 -13.6922 24.4558 -13.0525 -5.8644 -7.1250 0.0000 -0.0000 -1.9723 15.6970 1.3660 -0.0000 0.0000 0.0000 80.3256 -1.3657 28.3316 -27.9806 39.0984 -10.1115 0.0000 -0.0000 -13.1431 -9.4074 -29.4146 4.6520 7.1250 -0.0000 -0.0000 24.0266 -58.0705 -7.9845
-14.5770 14.7426 -0.9337 -300.1510 84.4320 -282.0340 0.0000 0.0000 0.0000 -12.5279 1.3133 -40.3063 11.6950 18.2587 65.0188 3.1388 -0.8682 -33.3691 1.2562 -7.1054 -20.0281 0.0000 0.0000 0.0000 1.0924 1.9607 -62.7296 -10.7471 -17.8091 61.9574 -0.7715 -2.3444 -17.5998 -0.0692 1.6971 -4.6693 -6.0472 -1.9292 22.8826 0.1840 -3.4639 5.5797 4.5777 -1.4430 -6.2077 -1.9470 3.5228 -29.3176 -6.1733 7.1660 16.6812 -0.7019 2.3797 10.2952 0.0000 -0.0000 0.0000 -75.3424 -18.1981 41.4805 36.7119 -45.9965 -16.0325 -0.0000 0.0000 -13.1416 23.5136 -12.0773 -5.2016 -7.1250 0.0000 -0.0000 -2.5696 16.8537 1.7159 0.0000 -0.0000 0.0000 80.6964 -0.9396 29.0610 -28.3820 39.4656 -10.3656 0.0000 -0.0000 -13.8335 -9.7273 -28.8702 4.7315 7.1250 -0.0000 -0.0000 23.2996 -57.6444 -7.4824
-14.4308 14.7506 -0.8078 -301.3530 84.1309 -283.4230 0.0000 0.0000 0.0000 -12.0172 1.5795 -40.2589 12.1131 18.4380 66.3467 2.7600 -0.5888 -31.3286 1.4163 -7.5265 -21.2849 0.0000 0.0000 0.0000 1.1425 2.5527 -62.0829 -10.9447 -17.9079 62.6018 -0.8544 -2.4526 -18.5120 -0.0843 1.8732 -5.1554 -6.0500 -1.9585 22.9190 0.2437 -3.5205 5.4045 4.6681 -1.4632 -6.4086 -2.1100 3.7212 -28.6844 -6.3448 7.5123 16.5797 -0.6851 2.5264 10.1653 0.0000 -0.0000 0.0000 -76.2238 -17.0813 39.7786 33.8991 -44.0098 -14.0429 -0.0000 0.0000 -12.5982 22.7813 -10.8150 -4.5058 -7.1250 0.0000 -0.0000 -3.0271 18.2835 1.9273 0.0000 -0.0000 0.0000 80.6633 -0.8346 30.0897 -28.6919 39.7455 -10.5632 0.0000 -0.0000 -14.3439 -10.1003 -28.1093 4.7975 7.1250 -0.0000 -0.0000 22.3837 -57.0261 -6.8287
-14.2850 14.7654 -0.6836 -301.7360 83.7985 -284.0650 0.0000 0.0000 0.0000 -11.5521 1.8309 -40.4530 12.6286 18.6439 67.9680 2.3154 -0.0436 -28.8204 1.3906 -7.4608 -21.0878 0.0000 0.0000 0.0000 1.1322 3.1000 -61.2923 -11.1110 -17.9890 63.1415 -0.9453 -2.5504 -19.4545 -0.0992 2.0314 -5.5924 -5.7789 -1.9102 22.9250 0.1285 -3.4021 5.4384 4.3560 -1.4089 -6.4148 -2.3413 3.6689 -28.9046 -6.2989 7.5582 16.8313 -0.6208 2.5220 10.2852 -0.0000 0.0000 0.0000 -76.8820 -16.4368 38.3566 31.4422 -42.0979 -12.3652 -0.0000 0.0000 -12.1626 22.2366 -9.9767 -4.0515 -7.1250 0.0000 -0.0000 -3.3849 19.2296 2.0848 -0.0000 0.0000 0.0000 80.9330 -0.3220 30.5943 -28.8458 39.8833 -10.6617 0.0000 -0.0000 -14.7584 -10.3634 -27.3392 4.8008 7.1250 -0.0000 -0.0000 21.6007 -56.3695 -6.2255
-14.1476 14.7792 -0.5667 -300.8320 83.5946 -283.4550 0.0000 0.0000 0.0000 -11.0261 1.9063 -40.9588 13.2322 18.8644 69.8451 1.8326 1.0132 -25.9846 1.2745 -7.1549 -20.1752 0.0000 0.0000 0.0000 1.2812 3.3632 -60.4974 -11.2478 -18.0542 63.5837 -1.0217 -2.6750 -20.2344 -0.1134 2.1712 -5.9791 -5.3494 -1.9541 23.0118 0.0600 -3.3648 5.4796 4.0301 -1.3935 -6.4518 -2.5752 3.6292 -28.9980 -6.4058 7.6481 16.9655 -0.6047 2.5271 10.3512 -0.0000 0.0000 0.0000 -77.6040 -15.7456 36.7657 29.2743 -40.2632 -10.9376 -0.0000 0.0000 -11.3288 21.9775 -9.5311 -3.8231 -7.1250 0.0000 -0.0000 -3.5576 19.7272 2.1521 -0.0000 0.0000 0.0000 81.0819 0.2797 31.2170 -29.1148 40.1224 -10.8346 0.0000 -0.0000 -15.2255 -10.6395 -27.6884 4.9887 7.1250 -0.0000 -0.0000 21.5555 -56.7491 -6.4128
-14.0185 14.7947 -0.4609 -300.2670 83.6013 -283.1330 0.0000 0.0000 0.0000 -10.3178 1.9830 -41.8354 13.8902 19.0804 71.8688 1.3457 2.5467 -22.9623 1.2317 -7.0384 -19.8292 0.0000 0.0000 0.0000 1.6867 3.5587 -59.7007 -11.3534 -18.1037 63.9238 -1.0887 -2.8581 -20.9320 -0.1253 2.2818 -6.2852 -4.3254 -2.0468 23.1097 -0.2191 -3.2607 5.6094 3.1168 -1.3528 -6.4544 -2.4878 3.5325 -29.5745 -6.4954 7.5590 17.2312 -0.6585 2.4545 10.5525 0.0000 0.0000 0.0000 -77.8439 -15.2026 35.4553 27.5500 -38.6987 -9.8411 -0.0000 0.0000 -10.5169 21.3444 -8.2209 -3.1982 -7.1250 0.0000 -0.0000 -3.9891 21.1717 2.2846 0.0000 0.0000 0.0000 81.6903 0.9856 31.5228 -29.7779 40.7023 -11.2645 0.0000 -0.0000 -15.6029 -10.8922 -29.3450 5.3872 7.1250 -0.0000 -0.0000 22.4666 -58.3300 -7.5717
-13.8893 14.8101 -0.3646 -300.3130 83.6081 -283.3590 0.0000 0.0000 0.0000 -9.6799 2.2066 -42.9031 14.5421 19.2703 73.8535 0.9041 4.3520 -20.0430 1.0995 -6.6628 -18.7203 0.0000 0.0000 0.0000 2.0828 3.7909 -58.9009 -11.4363 -18.1420 64.1905 -1.1904 -2.8341 -21.8089 -0.1074 2.1132 -5.8186 -3.6244 -2.1384 23.2005 -0.3224 -3.2420 5.4833 2.6097 -1.3472 -6.6921 -2.1671 3.6530 -29.0023 -6.9812 7.6713 17.0050 -0.8696 2.4918 10.4151 0.0000 -0.0000 0.0000 -78.3192 -13.8299 33.9326 26.4530 -37.6525 -9.1630 -0.0000 0.0000 -10.0825 20.6804 -7.0884 -2.6670 -7.1250 0.0000 -0.0000 -4.4657 22.4161 2.4325 0.0000 -0.0000 0.0000 81.7694 1.0809 32.4791 -30.8782 41.6344 -11.9889 0.0000 -0.0000 -16.2762 -11.2613 -30.9422 5.8456 7.1250 -0.0000 -0.0000 23.3320 -59.8715 -8.7549
-13.7618 14.8275 -0.2756 -299.4750 83.5514 -282.7070 0.0000 0.0000 0.0000 -9.2429 2.4229 -43.8654 15.1233 19.4200 75.6077 0.7124 5.0509 -18.5691 1.2509 -7.0909 -19.9849 0.0000 0.0000 0.0000 2.3944 3.8842 -58.0947 -11.4938 -18.1683 64.3749 -1.2827 -2.8431 -22.5877 -0.0924 1.9600 -5.3952 -3.1876 -2.2701 23.2514 -0.2851 -3.3129 5.4438 2.4253 -1.3850 -6.7822 -2.1294 3.7841 -28.6096 -7.4575 7.9137 16.6844 -1.0076 2.5737 10.2689 0.0000 -0.0000 0.0000 -79.0577 -12.4758 32.0984 25.7392 -36.9501 -8.7304 -0.0000 0.0000 -9.6429 20.4455 -7.0879 -2.6338 -7.1250 0.0000 -0.0000 -4.6376 22.4287 2.5255 0.0000 -0.0000 0.0000 81.4619 1.4608 33.6464 -31.6971 42.3044 -12.5365 0.0000 -0.0000 -17.1017 -12.1750 -31.0454 6.3490 7.1250 -0.0000 -0.0000 22.4645 -60.1785 -8.5746
-13.6443 14.8447 -0.1952 -298.1150 83.4415 -281.5340 0.0000 0.0000 0.0000 -8.9676 2.5051 -44.7512 15.5881 19.5268 77.0020 0.6208 5.3044 -17.7558 1.2347 -7.0466 -19.8534 0.0000 0.0000 0.0000 2.5819 4.0007 -57.3048 -11.5244 -18.1823 64.4733 -1.3408 -3.1743 -23.2203 -0.1203 2.2356 -6.1572 -2.4535 -2.3088 23.2075 -0.5614 -3.1911 5.6705 1.6660 -1.3361 -6.5796 -1.9830 3.6684 -28.9768 -7.5469 7.7321 16.6213 -1.0903 2.4827 10.3123 0.0000 -0.0000 0.0000 -79.2197 -11.8012 30.9859 25.1609 -36.3679 -8.3851 -0.0000 0.0000 -9.1669 20.5184 -7.4374 -2.7735 -7.1250 0.0000 -0.0000 -4.5843 22.0538 2.5355 0.0000 -0.0000 0.0000 81.7976 2.3604 34.0520 -32.2782 42.7679 -12.9294 0.0000 -0.0000 -17.7106 -13.3734 -31.2688 7.0348 7.1250 -0.0000 -0.0000 21.3860 -60.6675 -8.3899
-13.5352 14.8652 -0.1233 -296.7970 83.3107 -280.3410 0.0000 0.0000 0.0000 -8.7779 2.4108 -45.7194 15.8547 19.5829 77.7986 0.5985 4.9295 -17.2400 1.3575 -7.3751 -20.8315 0.0000 0.0000 0.0000 2.6541 4.2319 -56.5279 -11.5227 -18.1815 64.4676 -1.4086 -3.4732 -23.9058 -0.1389 2.4021 -6.6182 -1.9112 -2.4006 23.1977 -0.7544 -3.1802 5.8602 1.1402 -1.3351 -6.4112 -2.0121 3.6033 -29.3504 -7.5509 7.6749 16.6134 -1.0938 2.4452 10.3696 0.0000 0.0000 0.0000 -79.5159 -11.0185 29.9342 24.8222 -36.0217 -8.1851 -0.0000 0.0000 -9.1392 21.0015 -7.5761 -2.8975 -7.1250 0.0000 -0.0000 -4.2325 21.8796 2.3567 0.0000 0.0000 0.0000 81.7711 3.2206 34.9480 -33.0952 43.4031 -13.4874 0.0000 -0.0000 -18.4524 -14.5650 -32.2095 7.8849 7.1250 -0.0000 -0.0000 20.9037 -61.8271 -8.7677
-13.4314 14.8955 -0.0553 -294.9420 83.1350 -278.4490 0.0000 0.0000 0.0000 -8.6559 2.0859 -46.8591 15.9272 19.5976 78.0146 0.6527 3.3087 -16.8181 1.4170 -7.5284 -21.2907 0.0000 0.0000 0.0000 2.6099 4.4822 -55.8571 -11.4937 -18.1683 64.3747 -1.4899 -3.6945 -24.6428 -0.1230 2.2608 -6.2269 -1.6087 -2.4023 23.1771 -0.8768 -3.1260 5.8157 0.8214 -1.3119 -6.4759 -1.8986 3.5149 -29.1652 -7.6548 7.5193 16.5392 -1.1772 2.3774 10.3163 0.0000 -0.0000 0.0000 -79.9064 -9.8155 29.2842 24.8878 -36.0891 -8.2237 -0.0000 0.0000 -10.0682 21.3196 -7.8979 -3.0697 -7.1250 0.0000 -0.0000 -4.0036 21.5182 2.2615 0.0000 -0.0000 0.0000 81.5630 3.5334 35.6687 -34.7637 44.6427 -14.6471 0.0000 -0.0000 -18.2824 -14.8151 -34.7450 8.5723 7.1250 -0.0000 -0.0000 23.0372 -64.2092 -11.0012
-13.3366 14.9271 0.0091 -292.4450 82.9388 -275.7740 0.0000 0.0000 0.0000 -8.6494 1.4151 -48.3512 15.6607 19.5424 77.2191 0.6108 2.4414 -15.8483 1.6592 -8.1168 -23.0694 0.0000 0.0000 0.0000 2.5209 4.6736 -55.3761 -11.4452 -18.1461 64.2191 -1.5471 -4.1344 -25.2952 -0.1122 2.1593 -5.9461 -1.5031 -2.3743 23.1648 -0.9019 -3.0730 5.7431 0.7210 -1.2878 -6.5578 -1.9243 3.4255 -29.2049 -7.7368 7.4279 16.4815 -1.2178 2.3264 10.3030 0.0000 0.0000 0.0000 -80.4016 -8.6411 28.7256 25.2636 -36.4722 -8.4461 -0.0000 0.0000 -11.4871 21.3505 -8.1621 -3.1765 -7.1250 0.0000 -0.0000 -3.9840 21.2341 2.2760 0.0000 0.0000 0.0000 81.2269 3.8921 36.3378 -36.0920 45.5764 -15.5882 0.0000 -0.0000 -18.1110 -16.1563 -32.6385 8.8804 7.1250 -0.0000 -0.0000 19.5417 -62.6283 -8.5410
-13.2422 14.9529 0.0641 -289.5580 82.8520 -272.8040 0.0000 0.0000 0.0000 -8.6469 0.7816 -49.5496 15.2336 19.4464 75.9394 0.6263 1.7820 -15.6987 1.6149 -8.0132 -22.7542 0.0000 0.0000 0.0000 2.5547 4.7321 -54.8060 -11.3806 -18.1164 64.0115 -1.5880 -4.6086 -25.8436 -0.1160 2.1957 -6.0469 -1.4589 -2.3597 23.4147 -0.8052 -3.0491 5.5922 0.8068 -1.2738 -6.8487 -2.0232 3.3645 -29.0934 -7.8439 7.4010 16.3808 -1.2454 2.3038 10.2500 -0.0000 0.0000 0.0000 -81.0000 -7.2780 28.4924 25.7494 -36.9602 -8.7366 -0.0000 0.0000 -13.1267 22.0447 -8.2896 -3.3413 -7.1250 0.0000 -0.0000 -3.4834 21.0537 2.0031 -0.0000 0.0000 0.0000 80.7771 4.1782 37.0232 -36.9752 46.1722 -16.2222 0.0000 -0.0000 -18.1954 -17.7130 -29.3410 8.8948 7.1250 -0.0000 -0.0000 15.3021 -59.8688 -5.6326
